<svg xmlns="http://www.w3.org/2000/svg" viewBox="0 0 86.74 60.73"><defs><style>.cls-1{fill:#231815;}</style></defs><g id="mifalogo" data-name="mifalogo"><path class="cls-1" d="M32.72,38.19a.85.85,0,0,1,.65-.45,1.36,1.36,0,0,1,.73.12,1.06,1.06,0,0,1,.49.53.82.82,0,0,1-.08.78,34.26,34.26,0,0,1-2.77,3.6A7,7,0,0,1,28,45.14a4.2,4.2,0,0,1-2.65-.2A3.12,3.12,0,0,1,23.6,43a5.3,5.3,0,0,1-.4-2.45c.05-.87.13-1.72.24-2.53a56.7,56.7,0,0,1,1.5-6.18,20.81,20.81,0,0,0,.94-6.17,12.33,12.33,0,0,0-.32-1.88,1.83,1.83,0,0,0-1.39-1.31,4.23,4.23,0,0,0-3,.25,5.66,5.66,0,0,0-2.24,2,17.47,17.47,0,0,0-1.91,4c-.46,1.39-.85,2.79-1.18,4.21-.11.38-.2.76-.28,1.14s-.18.77-.29,1.15c-.27,1.42-.53,2.86-.77,4.33s-.48,2.92-.69,4.33a.83.83,0,0,1-.45.66,1,1,0,0,1-.73,0,1.18,1.18,0,0,1-.61-.45,1,1,0,0,1-.17-.82c.27-1.58.52-3.16.74-4.74a46.43,46.43,0,0,1,.89-4.74v-.17c.22-1.19.41-2.39.57-3.59a27.21,27.21,0,0,0,.24-3.6c-.05-.65-.15-1.38-.28-2.17a2.15,2.15,0,0,0-1.18-1.67,2.88,2.88,0,0,0-2.61-.08,5.31,5.31,0,0,0-2.84,2.53A32,32,0,0,0,5.7,28.54a53.29,53.29,0,0,0-2.2,7.65Q2.69,40.08,2,44v.33a.73.73,0,0,1-.4.57A1.19,1.19,0,0,1,.94,45a1.07,1.07,0,0,1-.65-.33A1,1,0,0,1,0,44q.74-5.88,1.75-11.73T3.91,20.53a.8.8,0,0,1,.44-.65,1,1,0,0,1,.74,0,1.27,1.27,0,0,1,.61.45,1,1,0,0,1,.16.81L5.13,25a15.34,15.34,0,0,1,2.15-2.9,5.42,5.42,0,0,1,3.06-1.68,8.22,8.22,0,0,1,2-.08,3.68,3.68,0,0,1,1.87.73A3.79,3.79,0,0,1,15.71,23a12.54,12.54,0,0,1,.57,2.49,12,12,0,0,1,3-4A5.49,5.49,0,0,1,24,20.45a4.15,4.15,0,0,1,2.36,1.06,4.81,4.81,0,0,1,1.18,2,7.53,7.53,0,0,1,.33,2.45,16.05,16.05,0,0,1-.29,2.53,47,47,0,0,1-1.42,6.09,20.88,20.88,0,0,0-.94,6.18,3.53,3.53,0,0,0,.57,2c.38.57,1,.69,1.95.37A7.23,7.23,0,0,0,30.6,41,25.33,25.33,0,0,0,32.72,38.19Z"/><path class="cls-1" d="M44,38.19a.85.85,0,0,1,.65-.45,1.35,1.35,0,0,1,.73.12.87.87,0,0,1,.45.58,1,1,0,0,1-.12.81c-.44.66-1,1.38-1.63,2.17a11.71,11.71,0,0,1-2.2,2.08,7.39,7.39,0,0,1-2.56,1.27,4.1,4.1,0,0,1-2.73-.2,4.38,4.38,0,0,1-2.48-2.33,11.1,11.1,0,0,1-.85-3.4,25.25,25.25,0,0,1,.77-8.42q1.09-4.17,2.24-8.25a.7.7,0,0,1,.45-.62,1.39,1.39,0,0,1,.73,0,1,1,0,0,1,.61.41,1.06,1.06,0,0,1,.16.82q-1,3.44-1.87,6.91a34.31,34.31,0,0,0-1.06,7.07,23.29,23.29,0,0,0,0,3,3.69,3.69,0,0,0,1.26,2.66,2.34,2.34,0,0,0,2.08.45,6.37,6.37,0,0,0,2.16-1.06A10.28,10.28,0,0,0,42.73,40C43.27,39.27,43.7,38.68,44,38.19Zm-5.37-22a1.15,1.15,0,0,1,.89.45,1.24,1.24,0,0,1,.21.82,1.57,1.57,0,0,1-.37.85,1,1,0,0,1-.81.41,1,1,0,0,1-.94-.41,1.52,1.52,0,0,1-.28-.9,1.37,1.37,0,0,1,.32-.89A1,1,0,0,1,38.66,16.2Z"/><path class="cls-1" d="M59.82,38a1,1,0,0,1,.65-.49.93.93,0,0,1,.73.12,1.3,1.3,0,0,1,.49.57.82.82,0,0,1-.08.78,9.65,9.65,0,0,1-2.28,2.78,10.28,10.28,0,0,1-3.09,1.76,10.62,10.62,0,0,1-3.54.61,8.88,8.88,0,0,1-3.54-.74l-.53-.32L48,42.77A31.44,31.44,0,0,1,49,49a20.07,20.07,0,0,1-.52,6.13,13.43,13.43,0,0,1-1.39,3.44,4.18,4.18,0,0,1-2.85,2.12,2.52,2.52,0,0,1-1.58-.16,3,3,0,0,1-1.14-.94,4,4,0,0,1-.65-1.43,6.27,6.27,0,0,1-.21-1.56q.33-4.08,1-8.09t1.34-7.93q1.14-6.7,2.44-13.28t3.1-13.12q.64-2.53,1.46-5a37.24,37.24,0,0,1,2-4.87,20.21,20.21,0,0,1,1.62-2.69A3.49,3.49,0,0,1,56.24,0a2.47,2.47,0,0,1,1.67.41A3.1,3.1,0,0,1,59,1.73a7.07,7.07,0,0,1,.53,1.76,9.74,9.74,0,0,1,.17,1.67,26.22,26.22,0,0,1-.57,6.13c-.44,2-1,4-1.55,5.89-.71,2.29-1.49,4.55-2.36,6.79a54.13,54.13,0,0,1-3,6.45c-.76,1.37-1.59,2.74-2.48,4.13A12.75,12.75,0,0,1,46.39,38c0,.11.11.22.16.32s.11.22.16.33a9.08,9.08,0,0,0,3.18,2.78A6.09,6.09,0,0,0,54,42a10.4,10.4,0,0,0,3.42-1.39A7,7,0,0,0,59.82,38ZM47,51.52a33.45,33.45,0,0,0-.9-8.26c-.11-.49-.24-1-.4-1.51l-.49-1.52q-.66,3.93-1.3,7.85c-.44,2.62-.79,5.23-1.06,7.85,0,.22,0,.49,0,.82a3.58,3.58,0,0,0,0,1,1.45,1.45,0,0,0,.36.78.71.71,0,0,0,.78.12,3,3,0,0,0,1.54-1.15,6.69,6.69,0,0,0,.9-1.88,11.36,11.36,0,0,0,.45-2.16A18.21,18.21,0,0,0,47,51.52Zm4.56-40.23a122.12,122.12,0,0,0-3.14,12.14Q47.12,29.61,46,35.74a9.25,9.25,0,0,0,2-2.21c.57-.87,1.1-1.72,1.58-2.53q1.39-2.37,2.53-4.83a51.51,51.51,0,0,0,2-5.07c.6-1.74,1.15-3.48,1.67-5.23s1-3.51,1.34-5.31c.22-1.15.41-2.36.57-3.64a8.63,8.63,0,0,0-.32-3.72,2.88,2.88,0,0,0-.57-1.06,1,1,0,0,1-.21,0,1.11,1.11,0,0,0-.36,0c.1,0,.09,0,0,0s-.18,0-.13,0l-.32.16a3.16,3.16,0,0,1-.37.45A3.09,3.09,0,0,0,55,3.2a16.3,16.3,0,0,0-2.08,3.88C52.42,8.47,52,9.88,51.52,11.29Z"/><path class="cls-1" d="M84.8,38.19a1,1,0,0,1,.66-.49,1,1,0,0,1,.73.12,1.36,1.36,0,0,1,.49.57.82.82,0,0,1-.09.78,19.77,19.77,0,0,1-2.76,3.68,7.11,7.11,0,0,1-4,2.13,4.43,4.43,0,0,1-3-.58,4.78,4.78,0,0,1-2-2.45,8.13,8.13,0,0,1-.57-3.11c-.21.33-.4.65-.57.95a3.85,3.85,0,0,1-.65.85,10,10,0,0,1-2.19,2.17A8.68,8.68,0,0,1,68,44.16a6.61,6.61,0,0,1-2.93.16,5.27,5.27,0,0,1-2.77-1.47,6.91,6.91,0,0,1-1.79-2.74,11.32,11.32,0,0,1-.65-3.35,16.73,16.73,0,0,1,.2-3.47,20.4,20.4,0,0,1,.78-3.19,18.7,18.7,0,0,1,1.42-3.4,16.34,16.34,0,0,1,2.2-3.18,11.13,11.13,0,0,1,2.89-2.37,7.71,7.71,0,0,1,3.58-1,5.44,5.44,0,0,1,3.82,1.15,7.55,7.55,0,0,1,2.2,3.1c.05-.16.11-.34.16-.53s.11-.36.17-.53a.67.67,0,0,1,.48-.61,1.49,1.49,0,0,1,.78,0,1,1,0,0,1,.61.41.84.84,0,0,1,.08.81,32,32,0,0,0-1,3.4c-.27,1.17-.54,2.33-.81,3.47q-.41,2.13-.9,4.29a14.61,14.61,0,0,0-.32,4.3,11.49,11.49,0,0,0,.24,1.34A3.61,3.61,0,0,0,77,41.91a2.87,2.87,0,0,0,.94.86,2.21,2.21,0,0,0,1.38.24,5.07,5.07,0,0,0,3.22-1.75A18.47,18.47,0,0,0,84.8,38.19Zm-12.61.16a24.82,24.82,0,0,0,2-4.37c.52-1.5,1-3,1.43-4.62a13.62,13.62,0,0,0-.08-3.31A4.53,4.53,0,0,0,74,23.23a4.23,4.23,0,0,0-2.4-1,5,5,0,0,0-2.57.45,9.33,9.33,0,0,0-2.88,2A12.78,12.78,0,0,0,64,27.6,17.8,17.8,0,0,0,62.63,31,14.38,14.38,0,0,0,62,34.51a16,16,0,0,0,0,3.11,5.39,5.39,0,0,0,1,2.86,4.4,4.4,0,0,0,2.16,1.63,4,4,0,0,0,2.64.09,5.54,5.54,0,0,0,2.53-1.52A16.46,16.46,0,0,0,72.19,38.35Z"/></g></svg>
